<svg width="75" height="75" viewBox="0 0 75 75" fill="none" xmlns="http://www.w3.org/2000/svg">
<path d="M25.0174 48.8H11.9174L9.81738 55H0.867383L13.5674 19.9H23.4674L36.1674 55H27.1174L25.0174 48.8ZM22.8174 42.2L18.4674 29.35L14.1674 42.2H22.8174Z" fill="#D92A27"/>
<path d="M53.2494 31.2C53.2494 33.2334 52.7828 35.1 51.8494 36.8C50.9161 38.4667 49.4828 39.8167 47.5494 40.85C45.6161 41.8834 43.2161 42.4 40.3494 42.4H35.0494V49.5L26.4994 25.35V19.9H40.3494C43.1494 19.9 45.5161 20.3834 47.4494 21.35C49.3828 22.3167 50.8328 23.65 51.7994 25.35C52.7661 27.05 53.2494 29 53.2494 31.2ZM39.6994 35.6C41.3328 35.6 42.5494 35.2167 43.3494 34.45C44.1494 33.6834 44.5494 32.6 44.5494 31.2C44.5494 29.8 44.1494 28.7167 43.3494 27.95C42.5494 27.1834 41.3328 26.8 39.6994 26.8H35.0494V35.6H39.6994Z" fill="#DFAA26"/>
<path d="M62.7359 48.4H73.9359V55H54.1859V19.9H62.7359V48.4Z" fill="#126A36"/>
</svg>
