<svg width="201" height="60" viewBox="0 0 201 60" fill="none" xmlns="http://www.w3.org/2000/svg">
<g clip-path="url(#clip0_9_76)">
<path d="M59.1149 21.8666C58.8771 23.4175 58.4254 24.8382 57.9262 26.3062C56.8206 29.5501 54.3125 31.4325 51.828 33.4925C49.5933 35.3394 47.0851 36.0379 44.3748 35.9905C41.8666 35.9432 38.8592 36.0024 36.4698 36.0142C35.1266 36.0142 35.4713 34.3686 35.3762 33.3149C35.1979 31.326 35.2811 29.3133 35.3287 27.3126C35.3643 26.2352 36.244 26.1878 37.0523 26.176C38.9186 26.1523 40.773 26.3181 42.6036 25.7616C45.6943 24.8264 47.5368 21.6772 47.1802 18.232C47.1088 17.5572 47.0613 16.9179 46.8354 16.2431C45.5992 12.4901 42.6749 11.5075 39.1563 11.4601C36.1489 11.4128 33.1295 11.5075 30.1221 11.4246C28.8502 11.3891 28.5649 11.8272 28.5768 13.0229C28.6005 23.6306 28.5768 34.2384 28.553 44.8461C28.553 48.2202 28.5292 51.5943 28.5054 54.9684C28.4817 56.6496 27.7922 57.1823 26.2112 57.2178C23.4891 57.277 20.8263 57.2178 18.0804 57.2178C16.6896 57.2178 16.3211 56.4483 16.333 55.2407C16.3686 46.3496 16.3449 37.4467 16.3449 28.5438H16.3805C16.3805 19.6054 16.3924 10.6551 16.3568 1.70482C16.3568 0.710342 16.7609 0.367011 17.6525 0.390689L37.6467 0.438045C43.3287 0.461723 49.0464 1.05367 53.5517 5.17364C58.5205 9.70797 60.0777 15.367 59.1149 21.8785V21.8666Z" fill="#DFAA26"/>
<path d="M88.6069 43.8043C86.7406 49.2739 83.1863 53.4175 78.1462 56.3536C73.9262 58.8043 69.3972 59.6922 64.5235 59.9645C57.724 60.3433 51.9469 58.1176 46.669 54.2226C42.4134 51.0734 39.4654 46.9179 37.6942 41.9455C36.2915 38.0268 36.2796 38.311 40.4163 38.1807C43.0791 38.0979 45.7299 38.1452 48.3926 38.1571C49.0464 38.1571 49.3436 38.3465 49.5695 39.0923C50.9365 43.4964 54.7879 48.0071 60.2085 48.7174C63.9054 49.2147 67.6023 49.4751 71.0852 47.8177C73.95 46.4444 76.3156 44.5146 77.2546 41.2944C77.6707 39.8737 77.433 39.708 75.9827 39.5896C70.8237 39.1279 65.6528 39.4594 60.4938 39.3528C59.4596 39.341 59.2575 38.9384 59.2813 38.0387C59.3288 35.4459 59.3407 32.8532 59.2813 30.2723C59.2575 29.337 59.4952 29.0174 60.4819 29.0292H88.7495C89.8313 28.9937 90.0571 29.3133 90.1403 30.3907C90.4732 34.9724 90.0928 39.4594 88.6069 43.8043Z" fill="#126A36"/>
<path d="M0.0356615 38.3228C0.0356615 32.5572 0.0594358 26.7798 0.0118872 21.0142C0.0118872 19.9369 0.320953 19.4988 1.40268 19.5225C4.41014 19.5699 7.41759 19.5817 10.425 19.5699C11.7326 19.5699 12.3032 20.1263 12.2557 21.4286C12.0774 26.0931 12.0179 30.7814 12.0892 35.4223C12.1843 41.176 12.0892 46.9298 12.2557 52.6717C12.2913 53.749 12.2319 54.8264 12.2319 55.8919C12.2319 56.8627 11.7802 57.2652 10.7698 57.2534C7.60778 57.2178 4.45769 57.1942 1.2957 57.2534C0.213969 57.3126 0 56.8864 0 55.9274C0.0356615 50.0553 0.0118872 44.195 0.0118872 38.3228C0.0118872 38.3228 0.0237743 38.3228 0.0356615 38.3228Z" fill="#D92A27"/>
<path d="M88.2503 16.6338C85.4568 17.3323 82.699 18.1847 79.8936 18.895C78.7287 19.191 78.3126 18.824 77.9322 17.8887C76.8029 15.1657 74.9961 13.0111 72.2145 11.8508C69.2903 10.6433 66.2234 10.1579 63.0733 10.7616C61.8251 11.0103 61.0168 10.8919 60.4106 9.57774C59.2337 7.00868 57.522 4.79479 55.0851 3.22021C54.776 3.03078 54.4907 2.81768 54.574 2.41516C54.6572 1.96527 55.1208 1.8824 55.4536 1.79953C58.8177 0.935281 62.1461 -0.165745 65.7122 0.0236791C70.8831 0.213103 75.8282 1.12471 80.3334 3.91871C84.5653 6.54696 87.335 10.2407 89.0943 14.7751C89.3914 15.5564 89.4628 16.326 88.2503 16.6338Z" fill="#126A36"/>
<path d="M10.1754 0.331493C11.9347 0.36701 12.1606 0.473561 12.2319 2.32044C12.2795 3.77664 12.2438 5.24467 12.2438 6.71271H12.2676C12.2676 7.99132 12.2795 9.25809 12.2676 10.5367C12.2438 12.277 12.0774 12.4191 10.2705 12.4073L1.46214 12.4546C0.701365 12.4428 0.118894 11.5904 0.0713451 10.8327C0.0237964 9.96843 0.0356836 9.48303 0.0356836 9.48303V1.85872C0.0237964 0.970799 0.309088 0.449883 1.23629 0.36701" fill="#D92A27"/>
<path d="M104.443 8.88539V17.3094H102.391V8.88539H104.443ZM113.466 17.3094H111.414L107.982 12.1134V17.3094H105.93V8.88539H107.982L111.414 14.1054V8.88539H113.466V17.3094ZM118.002 17.3934C117.386 17.3934 116.834 17.2934 116.346 17.0934C115.858 16.8934 115.466 16.5974 115.17 16.2054C114.882 15.8134 114.73 15.3414 114.714 14.7894H116.898C116.93 15.1014 117.038 15.3414 117.222 15.5094C117.406 15.6694 117.646 15.7494 117.942 15.7494C118.246 15.7494 118.486 15.6814 118.662 15.5454C118.838 15.4014 118.926 15.2054 118.926 14.9574C118.926 14.7494 118.854 14.5774 118.71 14.4414C118.574 14.3054 118.402 14.1934 118.194 14.1054C117.994 14.0174 117.706 13.9174 117.33 13.8054C116.786 13.6374 116.342 13.4694 115.998 13.3014C115.654 13.1334 115.358 12.8854 115.11 12.5574C114.862 12.2294 114.738 11.8014 114.738 11.2734C114.738 10.4894 115.022 9.87739 115.59 9.43739C116.158 8.98939 116.898 8.76539 117.81 8.76539C118.738 8.76539 119.486 8.98939 120.054 9.43739C120.622 9.87739 120.926 10.4934 120.966 11.2854H118.746C118.73 11.0134 118.63 10.8014 118.446 10.6494C118.262 10.4894 118.026 10.4094 117.738 10.4094C117.49 10.4094 117.29 10.4774 117.138 10.6134C116.986 10.7414 116.91 10.9294 116.91 11.1774C116.91 11.4494 117.038 11.6614 117.294 11.8134C117.55 11.9654 117.95 12.1294 118.494 12.3054C119.038 12.4894 119.478 12.6654 119.814 12.8334C120.158 13.0014 120.454 13.2454 120.702 13.5654C120.95 13.8854 121.074 14.2974 121.074 14.8014C121.074 15.2814 120.95 15.7174 120.702 16.1094C120.462 16.5014 120.11 16.8134 119.646 17.0454C119.182 17.2774 118.634 17.3934 118.002 17.3934ZM128.396 8.88539V10.5294H126.164V17.3094H124.112V10.5294H121.88V8.88539H128.396ZM131.478 8.88539V17.3094H129.426V8.88539H131.478ZM139.025 8.88539V10.5294H136.793V17.3094H134.741V10.5294H132.509V8.88539H139.025ZM142.071 8.88539V13.9254C142.071 14.4294 142.195 14.8174 142.443 15.0894C142.691 15.3614 143.055 15.4974 143.535 15.4974C144.015 15.4974 144.383 15.3614 144.639 15.0894C144.895 14.8174 145.023 14.4294 145.023 13.9254V8.88539H147.075V13.9134C147.075 14.6654 146.915 15.3014 146.595 15.8214C146.275 16.3414 145.843 16.7334 145.299 16.9974C144.763 17.2614 144.163 17.3934 143.499 17.3934C142.835 17.3934 142.239 17.2654 141.711 17.0094C141.191 16.7454 140.779 16.3534 140.475 15.8334C140.171 15.3054 140.019 14.6654 140.019 13.9134V8.88539H142.071ZM154.576 8.88539V10.5294H152.344V17.3094H150.292V10.5294H148.06V8.88539H154.576ZM157.658 10.5294V12.2334H160.406V13.8174H157.658V15.6654H160.766V17.3094H155.606V8.88539H160.766V10.5294H157.658ZM168.625 17.3934C167.833 17.3934 167.105 17.2094 166.441 16.8414C165.785 16.4734 165.261 15.9614 164.869 15.3054C164.485 14.6414 164.293 13.8974 164.293 13.0734C164.293 12.2494 164.485 11.5094 164.869 10.8534C165.261 10.1974 165.785 9.68539 166.441 9.31739C167.105 8.94939 167.833 8.76539 168.625 8.76539C169.417 8.76539 170.141 8.94939 170.797 9.31739C171.461 9.68539 171.981 10.1974 172.357 10.8534C172.741 11.5094 172.933 12.2494 172.933 13.0734C172.933 13.8974 172.741 14.6414 172.357 15.3054C171.973 15.9614 171.453 16.4734 170.797 16.8414C170.141 17.2094 169.417 17.3934 168.625 17.3934ZM168.625 15.5214C169.297 15.5214 169.833 15.2974 170.233 14.8494C170.641 14.4014 170.845 13.8094 170.845 13.0734C170.845 12.3294 170.641 11.7374 170.233 11.2974C169.833 10.8494 169.297 10.6254 168.625 10.6254C167.945 10.6254 167.401 10.8454 166.993 11.2854C166.593 11.7254 166.393 12.3214 166.393 13.0734C166.393 13.8174 166.593 14.4134 166.993 14.8614C167.401 15.3014 167.945 15.5214 168.625 15.5214ZM179.559 8.88539V10.5294H176.127V12.3054H178.695V13.9014H176.127V17.3094H174.075V8.88539H179.559Z" fill="white"/>
<path d="M108.811 24.6203C108.811 25.1083 108.699 25.5563 108.475 25.9643C108.251 26.3643 107.907 26.6883 107.443 26.9363C106.979 27.1843 106.403 27.3083 105.715 27.3083H104.443V30.3323H102.391V21.9083H105.715C106.387 21.9083 106.955 22.0243 107.419 22.2563C107.883 22.4883 108.231 22.8083 108.463 23.2163C108.695 23.6243 108.811 24.0923 108.811 24.6203ZM105.559 25.6763C105.951 25.6763 106.243 25.5843 106.435 25.4003C106.627 25.2163 106.723 24.9563 106.723 24.6203C106.723 24.2843 106.627 24.0243 106.435 23.8403C106.243 23.6563 105.951 23.5643 105.559 23.5643H104.443V25.6763H105.559ZM114.175 30.3323L112.423 27.1523H111.931V30.3323H109.879V21.9083H113.323C113.987 21.9083 114.551 22.0243 115.015 22.2563C115.487 22.4883 115.839 22.8083 116.071 23.2163C116.303 23.6163 116.419 24.0643 116.419 24.5603C116.419 25.1203 116.259 25.6203 115.939 26.0603C115.627 26.5003 115.163 26.8123 114.547 26.9963L116.491 30.3323H114.175ZM111.931 25.7003H113.203C113.579 25.7003 113.859 25.6083 114.043 25.4243C114.235 25.2403 114.331 24.9803 114.331 24.6443C114.331 24.3243 114.235 24.0723 114.043 23.8883C113.859 23.7043 113.579 23.6123 113.203 23.6123H111.931V25.7003ZM121.692 30.4163C120.9 30.4163 120.172 30.2323 119.508 29.8643C118.852 29.4963 118.328 28.9843 117.936 28.3283C117.552 27.6643 117.36 26.9203 117.36 26.0963C117.36 25.2723 117.552 24.5323 117.936 23.8763C118.328 23.2203 118.852 22.7083 119.508 22.3403C120.172 21.9723 120.9 21.7883 121.692 21.7883C122.484 21.7883 123.208 21.9723 123.864 22.3403C124.528 22.7083 125.048 23.2203 125.424 23.8763C125.808 24.5323 126 25.2723 126 26.0963C126 26.9203 125.808 27.6643 125.424 28.3283C125.04 28.9843 124.52 29.4963 123.864 29.8643C123.208 30.2323 122.484 30.4163 121.692 30.4163ZM121.692 28.5443C122.364 28.5443 122.9 28.3203 123.3 27.8723C123.708 27.4243 123.912 26.8323 123.912 26.0963C123.912 25.3523 123.708 24.7603 123.3 24.3203C122.9 23.8723 122.364 23.6483 121.692 23.6483C121.012 23.6483 120.468 23.8683 120.06 24.3083C119.66 24.7483 119.46 25.3443 119.46 26.0963C119.46 26.8403 119.66 27.4363 120.06 27.8843C120.468 28.3243 121.012 28.5443 121.692 28.5443ZM132.733 24.5723C132.581 24.2923 132.361 24.0803 132.073 23.9363C131.793 23.7843 131.461 23.7083 131.077 23.7083C130.413 23.7083 129.881 23.9283 129.481 24.3683C129.081 24.8003 128.881 25.3803 128.881 26.1083C128.881 26.8843 129.089 27.4923 129.505 27.9323C129.929 28.3643 130.509 28.5803 131.245 28.5803C131.749 28.5803 132.173 28.4523 132.517 28.1963C132.869 27.9403 133.125 27.5723 133.285 27.0923H130.681V25.5803H135.145V27.4883C134.993 28.0003 134.733 28.4763 134.365 28.9163C134.005 29.3563 133.545 29.7123 132.985 29.9843C132.425 30.2563 131.793 30.3923 131.089 30.3923C130.257 30.3923 129.513 30.2123 128.857 29.8523C128.209 29.4843 127.701 28.9763 127.333 28.3283C126.973 27.6803 126.793 26.9403 126.793 26.1083C126.793 25.2763 126.973 24.5363 127.333 23.8883C127.701 23.2323 128.209 22.7243 128.857 22.3643C129.505 21.9963 130.245 21.8123 131.077 21.8123C132.085 21.8123 132.933 22.0563 133.621 22.5443C134.317 23.0323 134.777 23.7083 135.001 24.5723H132.733ZM140.578 30.3323L138.826 27.1523H138.334V30.3323H136.282V21.9083H139.726C140.39 21.9083 140.954 22.0243 141.418 22.2563C141.89 22.4883 142.242 22.8083 142.474 23.2163C142.706 23.6163 142.822 24.0643 142.822 24.5603C142.822 25.1203 142.662 25.6203 142.342 26.0603C142.03 26.5003 141.566 26.8123 140.95 26.9963L142.894 30.3323H140.578ZM138.334 25.7003H139.606C139.982 25.7003 140.262 25.6083 140.446 25.4243C140.638 25.2403 140.734 24.9803 140.734 24.6443C140.734 24.3243 140.638 24.0723 140.446 23.8883C140.262 23.7043 139.982 23.6123 139.606 23.6123H138.334V25.7003ZM146.162 23.5523V25.2563H148.91V26.8403H146.162V28.6883H149.27V30.3323H144.11V21.9083H149.27V23.5523H146.162ZM153.65 30.4163C153.034 30.4163 152.482 30.3163 151.994 30.1163C151.506 29.9163 151.114 29.6203 150.818 29.2283C150.53 28.8363 150.378 28.3643 150.362 27.8123H152.546C152.578 28.1243 152.686 28.3643 152.87 28.5323C153.054 28.6923 153.294 28.7723 153.59 28.7723C153.894 28.7723 154.134 28.7043 154.31 28.5683C154.486 28.4243 154.574 28.2283 154.574 27.9803C154.574 27.7723 154.502 27.6003 154.358 27.4643C154.222 27.3283 154.05 27.2163 153.842 27.1283C153.642 27.0403 153.354 26.9403 152.978 26.8283C152.434 26.6603 151.99 26.4923 151.646 26.3243C151.302 26.1563 151.006 25.9083 150.758 25.5803C150.51 25.2523 150.386 24.8243 150.386 24.2963C150.386 23.5123 150.67 22.9003 151.238 22.4603C151.806 22.0123 152.546 21.7883 153.458 21.7883C154.386 21.7883 155.134 22.0123 155.702 22.4603C156.27 22.9003 156.574 23.5163 156.614 24.3083H154.394C154.378 24.0363 154.278 23.8243 154.094 23.6723C153.91 23.5123 153.674 23.4323 153.386 23.4323C153.138 23.4323 152.938 23.5003 152.786 23.6363C152.634 23.7643 152.558 23.9523 152.558 24.2003C152.558 24.4723 152.686 24.6843 152.942 24.8363C153.198 24.9883 153.598 25.1523 154.142 25.3283C154.686 25.5123 155.126 25.6883 155.462 25.8563C155.806 26.0243 156.102 26.2683 156.35 26.5883C156.598 26.9083 156.722 27.3203 156.722 27.8243C156.722 28.3043 156.598 28.7403 156.35 29.1323C156.11 29.5243 155.758 29.8363 155.294 30.0683C154.83 30.3003 154.282 30.4163 153.65 30.4163ZM161.033 30.4163C160.417 30.4163 159.865 30.3163 159.377 30.1163C158.889 29.9163 158.497 29.6203 158.201 29.2283C157.913 28.8363 157.761 28.3643 157.745 27.8123H159.929C159.961 28.1243 160.069 28.3643 160.253 28.5323C160.437 28.6923 160.677 28.7723 160.973 28.7723C161.277 28.7723 161.517 28.7043 161.693 28.5683C161.869 28.4243 161.957 28.2283 161.957 27.9803C161.957 27.7723 161.885 27.6003 161.741 27.4643C161.605 27.3283 161.433 27.2163 161.225 27.1283C161.025 27.0403 160.737 26.9403 160.361 26.8283C159.817 26.6603 159.373 26.4923 159.029 26.3243C158.685 26.1563 158.389 25.9083 158.141 25.5803C157.893 25.2523 157.769 24.8243 157.769 24.2963C157.769 23.5123 158.053 22.9003 158.621 22.4603C159.189 22.0123 159.929 21.7883 160.841 21.7883C161.769 21.7883 162.517 22.0123 163.085 22.4603C163.653 22.9003 163.957 23.5163 163.997 24.3083H161.777C161.761 24.0363 161.661 23.8243 161.477 23.6723C161.293 23.5123 161.057 23.4323 160.769 23.4323C160.521 23.4323 160.321 23.5003 160.169 23.6363C160.017 23.7643 159.941 23.9523 159.941 24.2003C159.941 24.4723 160.069 24.6843 160.325 24.8363C160.581 24.9883 160.981 25.1523 161.525 25.3283C162.069 25.5123 162.509 25.6883 162.845 25.8563C163.189 26.0243 163.485 26.2683 163.733 26.5883C163.981 26.9083 164.105 27.3203 164.105 27.8243C164.105 28.3043 163.981 28.7403 163.733 29.1323C163.493 29.5243 163.141 29.8363 162.677 30.0683C162.213 30.3003 161.665 30.4163 161.033 30.4163ZM167.42 21.9083V30.3323H165.368V21.9083H167.42ZM176.815 21.9083L173.827 30.3323H171.259L168.271 21.9083H170.455L172.543 28.2683L174.643 21.9083H176.815ZM179.724 23.5523V25.2563H182.472V26.8403H179.724V28.6883H182.832V30.3323H177.672V21.9083H182.832V23.5523H179.724Z" fill="white"/>
<path d="M107.983 37.5952C107.831 37.3152 107.611 37.1032 107.323 36.9592C107.043 36.8072 106.711 36.7312 106.327 36.7312C105.663 36.7312 105.131 36.9512 104.731 37.3912C104.331 37.8232 104.131 38.4032 104.131 39.1312C104.131 39.9072 104.339 40.5152 104.755 40.9552C105.179 41.3872 105.759 41.6032 106.495 41.6032C106.999 41.6032 107.423 41.4752 107.767 41.2192C108.119 40.9632 108.375 40.5952 108.535 40.1152H105.931V38.6032H110.395V40.5112C110.243 41.0232 109.983 41.4992 109.615 41.9392C109.255 42.3792 108.795 42.7352 108.235 43.0072C107.675 43.2792 107.043 43.4152 106.339 43.4152C105.507 43.4152 104.763 43.2352 104.107 42.8752C103.459 42.5072 102.951 41.9992 102.583 41.3512C102.223 40.7032 102.043 39.9632 102.043 39.1312C102.043 38.2992 102.223 37.5592 102.583 36.9112C102.951 36.2552 103.459 35.7472 104.107 35.3872C104.755 35.0192 105.495 34.8352 106.327 34.8352C107.335 34.8352 108.183 35.0792 108.871 35.5672C109.567 36.0552 110.027 36.7312 110.251 37.5952H107.983ZM115.516 43.4392C114.724 43.4392 113.996 43.2552 113.332 42.8872C112.676 42.5192 112.152 42.0072 111.76 41.3512C111.376 40.6872 111.184 39.9432 111.184 39.1192C111.184 38.2952 111.376 37.5552 111.76 36.8992C112.152 36.2432 112.676 35.7312 113.332 35.3632C113.996 34.9952 114.724 34.8112 115.516 34.8112C116.308 34.8112 117.032 34.9952 117.688 35.3632C118.352 35.7312 118.872 36.2432 119.248 36.8992C119.632 37.5552 119.824 38.2952 119.824 39.1192C119.824 39.9432 119.632 40.6872 119.248 41.3512C118.864 42.0072 118.344 42.5192 117.688 42.8872C117.032 43.2552 116.308 43.4392 115.516 43.4392ZM115.516 41.5672C116.188 41.5672 116.724 41.3432 117.124 40.8952C117.532 40.4472 117.736 39.8552 117.736 39.1192C117.736 38.3752 117.532 37.7832 117.124 37.3432C116.724 36.8952 116.188 36.6712 115.516 36.6712C114.836 36.6712 114.292 36.8912 113.884 37.3312C113.484 37.7712 113.284 38.3672 113.284 39.1192C113.284 39.8632 113.484 40.4592 113.884 40.9072C114.292 41.3472 114.836 41.5672 115.516 41.5672ZM128.873 34.9312L125.885 43.3552H123.317L120.329 34.9312H122.513L124.601 41.2912L126.701 34.9312H128.873ZM131.783 36.5752V38.2792H134.531V39.8632H131.783V41.7112H134.891V43.3552H129.731V34.9312H134.891V36.5752H131.783ZM140.519 43.3552L138.767 40.1752H138.275V43.3552H136.223V34.9312H139.667C140.331 34.9312 140.895 35.0472 141.359 35.2792C141.831 35.5112 142.183 35.8312 142.415 36.2392C142.647 36.6392 142.763 37.0872 142.763 37.5832C142.763 38.1432 142.603 38.6432 142.283 39.0832C141.971 39.5232 141.507 39.8352 140.891 40.0192L142.835 43.3552H140.519ZM138.275 38.7232H139.547C139.923 38.7232 140.203 38.6312 140.387 38.4472C140.579 38.2632 140.675 38.0032 140.675 37.6672C140.675 37.3472 140.579 37.0952 140.387 36.9112C140.203 36.7272 139.923 36.6352 139.547 36.6352H138.275V38.7232ZM151.587 43.3552H149.535L146.103 38.1592V43.3552H144.051V34.9312H146.103L149.535 40.1512V34.9312H151.587V43.3552ZM158.319 41.8672H155.175L154.671 43.3552H152.523L155.571 34.9312H157.947L160.995 43.3552H158.823L158.319 41.8672ZM157.791 40.2832L156.747 37.1992L155.715 40.2832H157.791ZM169.458 43.3552H167.406L163.974 38.1592V43.3552H161.922V34.9312H163.974L167.406 40.1512V34.9312H169.458V43.3552ZM170.598 39.1312C170.598 38.2992 170.778 37.5592 171.138 36.9112C171.498 36.2552 171.998 35.7472 172.638 35.3872C173.286 35.0192 174.018 34.8352 174.834 34.8352C175.834 34.8352 176.69 35.0992 177.402 35.6272C178.114 36.1552 178.59 36.8752 178.83 37.7872H176.574C176.406 37.4352 176.166 37.1672 175.854 36.9832C175.55 36.7992 175.202 36.7072 174.81 36.7072C174.178 36.7072 173.666 36.9272 173.274 37.3672C172.882 37.8072 172.686 38.3952 172.686 39.1312C172.686 39.8672 172.882 40.4552 173.274 40.8952C173.666 41.3352 174.178 41.5552 174.81 41.5552C175.202 41.5552 175.55 41.4632 175.854 41.2792C176.166 41.0952 176.406 40.8272 176.574 40.4752H178.83C178.59 41.3872 178.114 42.1072 177.402 42.6352C176.69 43.1552 175.834 43.4152 174.834 43.4152C174.018 43.4152 173.286 43.2352 172.638 42.8752C171.998 42.5072 171.498 41.9992 171.138 41.3512C170.778 40.7032 170.598 39.9632 170.598 39.1312ZM182.138 36.5752V38.2792H184.886V39.8632H182.138V41.7112H185.246V43.3552H180.086V34.9312H185.246V36.5752H182.138Z" fill="white"/>
</g>
<defs>
<clipPath id="clip0_9_76">
<rect width="201" height="60" fill="white"/>
</clipPath>
</defs>
</svg>
