<svg width="134" height="36" viewBox="0 0 134 36" fill="none" xmlns="http://www.w3.org/2000/svg">
<path d="M25.0174 29.8H11.9174L9.81738 36H0.867383L13.5674 0.899999H23.4674L36.1674 36H27.1174L25.0174 29.8ZM22.8174 23.2L18.4674 10.35L14.1674 23.2H22.8174Z" fill="#D92A27"/>
<path d="M53.2494 12.2C53.2494 14.2334 52.7828 16.1 51.8494 17.8C50.9161 19.4667 49.4828 20.8167 47.5494 21.85C45.6161 22.8834 43.2161 23.4 40.3494 23.4H35.0494V30.5L26.4994 6.35002V0.900024H40.3494C43.1494 0.900024 45.5161 1.38336 47.4494 2.35002C49.3828 3.31669 50.8328 4.65002 51.7994 6.35002C52.7661 8.05002 53.2494 10 53.2494 12.2ZM39.6994 16.6C41.3328 16.6 42.5494 16.2167 43.3494 15.45C44.1494 14.6834 44.5494 13.6 44.5494 12.2C44.5494 10.8 44.1494 9.71669 43.3494 8.95002C42.5494 8.18336 41.3328 7.80002 39.6994 7.80002H35.0494V16.6H39.6994Z" fill="#DFAA26"/>
<path d="M63.7359 29.4H74.9359V36H55.1859V0.899999H63.7359V29.4Z" fill="#126A36"/>
<path d="M85.028 9.39H81.528L80.996 11H78.112L81.71 1.13H84.874L88.458 11H85.56L85.028 9.39ZM84.342 7.29L83.278 4.098L82.228 7.29H84.342ZM96.0444 1.13V3.314H92.0964V5.05H95.0084V7.136H92.0964V11H89.3524V1.13H96.0444ZM102.198 11L100.238 7.36H99.944V11H97.2V1.13H101.526C102.319 1.13 102.991 1.27 103.542 1.55C104.093 1.82067 104.508 2.19867 104.788 2.684C105.068 3.16 105.208 3.69667 105.208 4.294C105.208 4.966 105.021 5.55867 104.648 6.072C104.284 6.576 103.747 6.93533 103.038 7.15L105.264 11H102.198ZM99.944 5.484H101.302C101.675 5.484 101.955 5.39533 102.142 5.218C102.329 5.04067 102.422 4.784 102.422 4.448C102.422 4.13067 102.324 3.88333 102.128 3.706C101.941 3.51933 101.666 3.426 101.302 3.426H99.944V5.484ZM109.2 1.13V11H106.456V1.13H109.2ZM110.427 6.044C110.427 5.07333 110.627 4.21 111.029 3.454C111.439 2.68867 112.018 2.096 112.765 1.676C113.511 1.24667 114.37 1.032 115.341 1.032C116.573 1.032 117.609 1.36333 118.449 2.026C119.289 2.67933 119.83 3.57067 120.073 4.7H117.119C116.941 4.32667 116.694 4.042 116.377 3.846C116.069 3.65 115.709 3.552 115.299 3.552C114.664 3.552 114.155 3.78067 113.773 4.238C113.399 4.686 113.213 5.288 113.213 6.044C113.213 6.80933 113.399 7.42067 113.773 7.878C114.155 8.326 114.664 8.55 115.299 8.55C115.709 8.55 116.069 8.452 116.377 8.256C116.694 8.06 116.941 7.77533 117.119 7.402H120.073C119.83 8.53133 119.289 9.42733 118.449 10.09C117.609 10.7433 116.573 11.07 115.341 11.07C114.37 11.07 113.511 10.86 112.765 10.44C112.018 10.0107 111.439 9.418 111.029 8.662C110.627 7.89667 110.427 7.024 110.427 6.044ZM127.616 9.39H124.116L123.584 11H120.7L124.298 1.13H127.462L131.046 11H128.148L127.616 9.39ZM126.93 7.29L125.866 4.098L124.816 7.29H126.93ZM86.582 16.42C86.582 17.0173 86.442 17.5633 86.162 18.058C85.8913 18.5433 85.476 18.9353 84.916 19.234C84.3653 19.5233 83.6887 19.668 82.886 19.668H81.528V23H78.784V13.13H82.886C83.6793 13.13 84.3513 13.27 84.902 13.55C85.462 13.83 85.882 14.2173 86.162 14.712C86.442 15.2067 86.582 15.776 86.582 16.42ZM82.62 17.484C83.3947 17.484 83.782 17.1293 83.782 16.42C83.782 15.7013 83.3947 15.342 82.62 15.342H81.528V17.484H82.62ZM92.4164 23.098C91.4924 23.098 90.6431 22.8833 89.8684 22.454C89.0937 22.0153 88.4777 21.4133 88.0204 20.648C87.5724 19.8733 87.3484 19.0007 87.3484 18.03C87.3484 17.0593 87.5724 16.1913 88.0204 15.426C88.4777 14.6513 89.0937 14.0493 89.8684 13.62C90.6431 13.1907 91.4924 12.976 92.4164 12.976C93.3497 12.976 94.1991 13.1907 94.9644 13.62C95.7391 14.0493 96.3504 14.6513 96.7984 15.426C97.2464 16.1913 97.4704 17.0593 97.4704 18.03C97.4704 19.0007 97.2464 19.8733 96.7984 20.648C96.3504 21.4133 95.7391 22.0153 94.9644 22.454C94.1897 22.8833 93.3404 23.098 92.4164 23.098ZM92.4164 20.55C93.1164 20.55 93.6671 20.3213 94.0684 19.864C94.4791 19.4067 94.6844 18.7953 94.6844 18.03C94.6844 17.246 94.4791 16.63 94.0684 16.182C93.6671 15.7247 93.1164 15.496 92.4164 15.496C91.7071 15.496 91.1517 15.7247 90.7504 16.182C90.3491 16.63 90.1484 17.246 90.1484 18.03C90.1484 18.8047 90.3491 19.4207 90.7504 19.878C91.1517 20.326 91.7071 20.55 92.4164 20.55ZM101.448 20.9H104.514V23H98.7039V13.13H101.448V20.9ZM108.325 13.13V23H105.581V13.13H108.325ZM109.552 18.044C109.552 17.0733 109.752 16.21 110.154 15.454C110.564 14.6887 111.143 14.096 111.89 13.676C112.636 13.2467 113.495 13.032 114.466 13.032C115.698 13.032 116.734 13.3633 117.574 14.026C118.414 14.6793 118.955 15.5707 119.198 16.7H116.244C116.066 16.3267 115.819 16.042 115.502 15.846C115.194 15.65 114.834 15.552 114.424 15.552C113.789 15.552 113.28 15.7807 112.898 16.238C112.524 16.686 112.338 17.288 112.338 18.044C112.338 18.8093 112.524 19.4207 112.898 19.878C113.28 20.326 113.789 20.55 114.424 20.55C114.834 20.55 115.194 20.452 115.502 20.256C115.819 20.06 116.066 19.7753 116.244 19.402H119.198C118.955 20.5313 118.414 21.4273 117.574 22.09C116.734 22.7433 115.698 23.07 114.466 23.07C113.495 23.07 112.636 22.86 111.89 22.44C111.143 22.0107 110.564 21.418 110.154 20.662C109.752 19.8967 109.552 19.024 109.552 18.044ZM129.471 13.13L125.999 19.864V23H123.241V19.864L119.769 13.13H122.905L124.641 16.938L126.377 13.13H129.471ZM81.528 32.9H84.594V35H78.784V25.13H81.528V32.9ZM88.405 27.328V28.938H91.555V31.024H88.405V32.802H91.975V35H85.661V25.13H91.975V27.328H88.405ZM102.473 35H99.7289L96.0749 29.484V35H93.3309V25.13H96.0749L99.7289 30.716V25.13H102.473V35ZM107.76 35.098C106.612 35.098 105.669 34.8273 104.932 34.286C104.195 33.7353 103.798 32.9513 103.742 31.934H106.668C106.696 32.2793 106.799 32.5313 106.976 32.69C107.153 32.8487 107.382 32.928 107.662 32.928C107.914 32.928 108.119 32.8673 108.278 32.746C108.446 32.6153 108.53 32.438 108.53 32.214C108.53 31.9247 108.395 31.7007 108.124 31.542C107.853 31.3833 107.415 31.206 106.808 31.01C106.164 30.7953 105.641 30.59 105.24 30.394C104.848 30.1887 104.503 29.8947 104.204 29.512C103.915 29.12 103.77 28.6113 103.77 27.986C103.77 27.3513 103.929 26.81 104.246 26.362C104.563 25.9047 105.002 25.5593 105.562 25.326C106.122 25.0927 106.757 24.976 107.466 24.976C108.614 24.976 109.529 25.2467 110.21 25.788C110.901 26.32 111.269 27.0713 111.316 28.042H108.334C108.325 27.7433 108.231 27.5193 108.054 27.37C107.886 27.2207 107.667 27.146 107.396 27.146C107.191 27.146 107.023 27.2067 106.892 27.328C106.761 27.4493 106.696 27.622 106.696 27.846C106.696 28.0327 106.766 28.196 106.906 28.336C107.055 28.4667 107.237 28.5833 107.452 28.686C107.667 28.7793 107.984 28.9007 108.404 29.05C109.029 29.2647 109.543 29.4793 109.944 29.694C110.355 29.8993 110.705 30.1933 110.994 30.576C111.293 30.9493 111.442 31.4253 111.442 32.004C111.442 32.592 111.293 33.1193 110.994 33.586C110.705 34.0527 110.28 34.4213 109.72 34.692C109.169 34.9627 108.516 35.098 107.76 35.098Z" fill="black"/>
</svg>
