<?xml version="1.0" encoding="UTF-8"?>
<svg id="Layer_2" data-name="Layer 2" xmlns="http://www.w3.org/2000/svg" viewBox="0 0 169.09 50.68">
  <defs>
    <style>
      .cls-1 {
        fill: #dfaa26;
      }

      .cls-2 {
        fill: #231f20;
        font-family: Poppins-Bold, Poppins;
        font-size: 12px;
        font-weight: 700;
        letter-spacing: 0em;
      }

      .cls-3 {
        fill: #d92a27;
      }

      .cls-4 {
        fill: #126a36;
      }
    </style>
  </defs>
  <g id="Layer_1-2" data-name="Layer 1">
    <path class="cls-1" d="m49.73,18.47c-.2,1.31-.58,2.51-1,3.75-.93,2.74-3.04,4.33-5.13,6.07-1.88,1.56-3.99,2.15-6.27,2.11-2.11-.04-4.64.01-6.65.02-1.13,0-.84-1.39-.92-2.28-.15-1.68-.08-3.38-.04-5.07.03-.91.77-.95,1.45-.96,1.57-.02,3.13.12,4.67-.35,2.6-.79,4.15-3.45,3.85-6.36-.06-.57-.1-1.11-.29-1.68-1.04-3.17-3.5-4-6.46-4.04-2.53-.04-5.07.04-7.6-.03-1.07-.03-1.31.34-1.3,1.35.02,8.96,0,17.92-.02,26.88,0,2.85-.02,5.7-.04,8.55-.02,1.42-.6,1.87-1.93,1.9-2.29.05-4.53,0-6.84,0-1.17,0-1.48-.65-1.47-1.67.03-7.51.01-15.03.01-22.55h.03c0-7.55.01-15.11-.02-22.67,0-.84.34-1.13,1.09-1.11l16.82.04c4.78.02,9.59.52,13.38,4,4.18,3.83,5.49,8.61,4.68,14.11Z"/>
    <path class="cls-4" d="m74.54,37c-1.57,4.62-4.56,8.12-8.8,10.6-3.55,2.07-7.36,2.82-11.46,3.05-5.72.32-10.58-1.56-15.02-4.85-3.58-2.66-6.06-6.17-7.55-10.37-1.18-3.31-1.19-3.07,2.29-3.18,2.24-.07,4.47-.03,6.71-.02.55,0,.8.16.99.79,1.15,3.72,4.39,7.53,8.95,8.13,3.11.42,6.22.64,9.15-.76,2.41-1.16,4.4-2.79,5.19-5.51.35-1.2.15-1.34-1.07-1.44-4.34-.39-8.69-.11-13.03-.2-.87-.01-1.04-.35-1.02-1.11.04-2.19.05-4.38,0-6.56-.02-.79.18-1.06,1.01-1.05h23.78c.91-.03,1.1.24,1.17,1.15.28,3.87-.04,7.66-1.29,11.33Z"/>
    <path class="cls-3" d="m.03,32.37c0-4.87.02-9.75-.02-14.62,0-.91.26-1.28,1.17-1.26,2.53.04,5.06.05,7.59.04,1.1,0,1.58.47,1.54,1.57-.15,3.94-.2,7.9-.14,11.82.08,4.86,0,9.72.14,14.57.03.91-.02,1.82-.02,2.72,0,.82-.38,1.16-1.23,1.15-2.66-.03-5.31-.05-7.97,0C.18,48.41,0,48.05,0,47.24c.03-4.96.01-9.91.01-14.87,0,0,.01,0,.02,0Z"/>
    <path class="cls-4" d="m74.24,14.05c-2.35.59-4.67,1.31-7.03,1.91-.98.25-1.33-.06-1.65-.85-.95-2.3-2.47-4.12-4.81-5.1-2.46-1.02-5.04-1.43-7.69-.92-1.05.21-1.73.11-2.24-1-.99-2.17-2.43-4.04-4.48-5.37-.26-.16-.5-.34-.43-.68.07-.38.46-.45.74-.52,2.83-.73,5.63-1.66,8.63-1.5,4.35.16,8.51.93,12.3,3.29,3.56,2.22,5.89,5.34,7.37,9.17.25.66.31,1.31-.71,1.57Z"/>
    <path class="cls-3" d="m8.56.28c1.48.03,1.67.12,1.73,1.68.04,1.23.01,2.47.01,3.71h.02c0,1.08.01,2.15,0,3.23-.02,1.47-.16,1.59-1.68,1.58l-7.41.04c-.64-.01-1.13-.73-1.17-1.37-.04-.73-.03-1.14-.03-1.14V1.57C.02.82.26.38,1.04.31"/>
    <text class="cls-2" transform="translate(85.51 15.64)"><tspan x="0" y="0">INSTITUTE OF</tspan><tspan x="0" y="11">PROGRESSIVE </tspan><tspan x="0" y="22">GOVERNANCE</tspan></text>
  </g>
</svg>